<?xml version="1.0" encoding="UTF-8" standalone="no"?>
<svg width="16px" height="16px" viewBox="0 0 16 16" version="1.1" xmlns="http://www.w3.org/2000/svg" xmlns:xlink="http://www.w3.org/1999/xlink">
  <defs>
    <g id="calendar">
      <path d="M2.521,15.403l10.966,0c1.678,0 2.513,-0.835 2.513,-2.489l0,-9.802c0,-1.654 -0.835,-2.489 -2.513,-2.489l-10.966,0c-1.678,0 -2.521,0.827 -2.521,2.489l0,9.802c0,1.662 0.843,2.489 2.521,2.489Zm-0.121,-1.293c-0.714,0 -1.107,-0.377 -1.107,-1.124l0,-7.57c0,-0.739 0.393,-1.124 1.107,-1.124l11.192,0c0.714,0 1.115,0.385 1.115,1.124l0,7.57c0,0.747 -0.401,1.124 -1.115,1.124l-11.192,0Zm4.03,-6.936l0.474,0c0.281,0 0.377,-0.08 0.377,-0.361l0,-0.474c0,-0.281 -0.096,-0.369 -0.377,-0.369l-0.474,0c-0.281,0 -0.377,0.088 -0.377,0.369l0,0.474c0,0.281 0.096,0.361 0.377,0.361Zm2.674,0l0.465,0c0.281,0 0.378,-0.08 0.378,-0.361l0,-0.474c0,-0.281 -0.097,-0.369 -0.378,-0.369l-0.465,0c-0.289,0 -0.378,0.088 -0.378,0.369l0,0.474c0,0.281 0.089,0.361 0.378,0.361Zm2.665,0l0.474,0c0.281,0 0.369,-0.08 0.369,-0.361l0,-0.474c0,-0.281 -0.088,-0.369 -0.369,-0.369l-0.474,0c-0.281,0 -0.377,0.088 -0.377,0.369l0,0.474c0,0.281 0.096,0.361 0.377,0.361Zm-8.004,2.625l0.474,0c0.281,0 0.369,-0.08 0.369,-0.361l0,-0.474c0,-0.281 -0.088,-0.361 -0.369,-0.361l-0.474,0c-0.281,0 -0.377,0.08 -0.377,0.361l0,0.474c0,0.281 0.096,0.361 0.377,0.361Zm2.665,0l0.474,0c0.281,0 0.377,-0.08 0.377,-0.361l0,-0.474c0,-0.281 -0.096,-0.361 -0.377,-0.361l-0.474,0c-0.281,0 -0.377,0.08 -0.377,0.361l0,0.474c0,0.281 0.096,0.361 0.377,0.361Zm2.674,0l0.465,0c0.281,0 0.378,-0.08 0.378,-0.361l0,-0.474c0,-0.281 -0.097,-0.361 -0.378,-0.361l-0.465,0c-0.289,0 -0.378,0.08 -0.378,0.361l0,0.474c0,0.281 0.089,0.361 0.378,0.361Zm2.665,0l0.474,0c0.281,0 0.369,-0.08 0.369,-0.361l0,-0.474c0,-0.281 -0.088,-0.361 -0.369,-0.361l-0.474,0c-0.281,0 -0.377,0.08 -0.377,0.361l0,0.474c0,0.281 0.096,0.361 0.377,0.361Zm-8.004,2.633l0.474,0c0.281,0 0.369,-0.088 0.369,-0.369l0,-0.473c0,-0.281 -0.088,-0.362 -0.369,-0.362l-0.474,0c-0.281,0 -0.377,0.081 -0.377,0.362l0,0.473c0,0.281 0.096,0.369 0.377,0.369Zm2.665,0l0.474,0c0.281,0 0.377,-0.088 0.377,-0.369l0,-0.473c0,-0.281 -0.096,-0.362 -0.377,-0.362l-0.474,0c-0.281,0 -0.377,0.081 -0.377,0.362l0,0.473c0,0.281 0.096,0.369 0.377,0.369Zm2.674,0l0.465,0c0.281,0 0.378,-0.088 0.378,-0.369l0,-0.473c0,-0.281 -0.097,-0.362 -0.378,-0.362l-0.465,0c-0.289,0 -0.378,0.081 -0.378,0.362l0,0.473c0,0.281 0.089,0.369 0.378,0.369Z" style="fill-rule:nonzero;"/>
    </g>
    <g id="doc_text">
      <path d="M4.037,16.013l7.926,0c1.544,0 2.313,-0.784 2.313,-2.336l0,-6.776c0,-0.963 -0.112,-1.381 -0.709,-1.992l-4.112,-4.187c-0.567,-0.582 -1.037,-0.709 -1.873,-0.709l-3.545,0c-1.537,0 -2.313,0.791 -2.313,2.343l0,11.321c0,1.56 0.769,2.336 2.313,2.336Zm0.053,-1.201c-0.769,0 -1.165,-0.411 -1.165,-1.157l0,-11.276c0,-0.739 0.396,-1.165 1.172,-1.165l3.321,0l0,4.336c0,0.941 0.47,1.403 1.403,1.403l4.254,0l0,6.702c0,0.746 -0.396,1.157 -1.172,1.157l-7.813,0Zm4.865,-8.986c-0.298,0 -0.41,-0.119 -0.41,-0.417l0,-3.963l4.298,4.38l-3.888,0Zm1.791,3.18l-5.664,0c-0.269,0 -0.47,0.201 -0.47,0.455c0,0.261 0.201,0.462 0.47,0.462l5.664,0c0.261,0 0.455,-0.201 0.455,-0.462c0,-0.254 -0.194,-0.455 -0.455,-0.455Zm0,2.604l-5.664,0c-0.269,0 -0.47,0.209 -0.47,0.47c0,0.254 0.201,0.448 0.47,0.448l5.664,0c0.261,0 0.455,-0.194 0.455,-0.448c0,-0.261 -0.194,-0.47 -0.455,-0.47Z" style="fill-rule:nonzero;"/>
    </g>
    <g id="cube_box">
      <path d="M1.621,12.552l5.774,3.272c0.411,0.235 0.799,0.235 1.218,0l5.766,-3.272c0.675,-0.389 1.028,-0.771 1.028,-1.82l0,-5.811c0,-0.763 -0.279,-1.232 -0.895,-1.592l-5.195,-2.949c-0.888,-0.507 -1.746,-0.507 -2.634,0l-5.187,2.949c-0.624,0.36 -0.903,0.829 -0.903,1.592l0,5.811c0,1.049 0.36,1.431 1.028,1.82Zm9.831,-7.11l-5.686,-3.213l1.409,-0.8c0.565,-0.323 1.085,-0.33 1.658,0l4.835,2.759l-2.216,1.254Zm-3.448,1.952l-5.664,-3.206l2.267,-1.299l5.664,3.221l-2.267,1.284Zm-5.723,4.189c-0.426,-0.242 -0.572,-0.484 -0.572,-0.888l0,-5.539l5.715,3.265l0,6.09l-5.143,-2.928Zm11.445,0l-5.15,2.928l0,-6.09l5.715,-3.265l0,5.539c0,0.404 -0.146,0.646 -0.565,0.888Z" style="fill-rule:nonzero;"/>
    </g>
  </defs>
</svg>

